<?xml version="1.0" standalone="no"?>
<!DOCTYPE svg PUBLIC "-//W3C//DTD SVG 20010904//EN"
 "http://www.w3.org/TR/2001/REC-SVG-20010904/DTD/svg10.dtd">
<svg version="1.0" xmlns="http://www.w3.org/2000/svg"
 width="1024.000000pt" height="1024.000000pt" viewBox="0 0 1024.000000 1024.000000"
 preserveAspectRatio="xMidYMid meet">
<metadata>
Created by potrace 1.14, written by Peter Selinger 2001-2017
</metadata>
<g transform="translate(0.000000,1024.000000) scale(0.100000,-0.100000)"
fill="#000000" stroke="none">
<path d="M4795 8770 c-674 -42 -1301 -253 -1855 -623 -604 -403 -1075 -982
-1379 -1694 -68 -161 -139 -360 -176 -500 -15 -54 -30 -101 -34 -105 -3 -4
-56 -14 -116 -22 -133 -18 -226 -45 -325 -97 -199 -103 -346 -285 -416 -514
-24 -78 -28 -108 -28 -220 0 -152 14 -219 74 -341 47 -96 108 -167 198 -231
75 -54 83 -46 -93 -95 -128 -35 -175 -57 -204 -94 -29 -37 -28 -94 2 -122 46
-44 82 -39 357 43 47 15 143 41 215 60 l129 35 36 -24 c58 -38 101 -58 185
-86 77 -26 80 -28 87 -65 5 -21 6 -40 4 -43 -3 -2 -42 -13 -88 -23 -81 -19
-475 -127 -633 -174 -47 -14 -90 -34 -102 -47 -58 -61 -46 -133 24 -150 33 -9
138 14 348 76 203 59 458 126 479 126 9 0 12 -9 9 -27 -13 -84 -38 -195 -54
-248 l-19 -61 -242 -66 c-134 -37 -272 -74 -308 -83 -89 -23 -164 -60 -180
-89 -22 -41 -16 -77 19 -108 28 -25 36 -27 78 -21 27 3 84 17 128 30 192 58
458 133 461 130 4 -3 -40 -222 -54 -271 -7 -26 -15 -30 -121 -57 -176 -44
-241 -85 -241 -150 0 -96 68 -119 222 -78 44 12 81 19 83 17 10 -10 -52 -262
-66 -269 -8 -4 -55 -16 -105 -28 -139 -31 -204 -65 -223 -114 -13 -32 3 -83
29 -97 29 -16 95 -12 182 11 44 11 82 18 85 15 4 -4 -67 -358 -128 -639 -17
-76 -29 -144 -27 -151 2 -10 32 -7 134 10 158 26 720 142 750 154 17 7 23 21
29 67 20 165 105 343 215 454 139 140 287 200 683 279 42 8 57 16 57 28 0 9
13 76 30 147 16 72 66 310 110 530 45 220 82 408 84 418 5 22 -3 22 -191 -8
-86 -14 -157 -24 -159 -22 -3 3 86 449 90 454 5 6 798 145 801 140 1 -1 -13
-72 -32 -157 -151 -702 -293 -1424 -281 -1428 11 -5 86 12 213 49 296 84 824
214 833 205 3 -4 -164 -66 -177 -66 -38 0 -606 -191 -711 -239 -34 -16 193 -7
350 13 63 8 147 17 185 20 l70 6 -100 -36 c-133 -47 -463 -141 -888 -254
l-349 -92 -57 16 c-129 36 -285 14 -406 -59 -77 -47 -116 -84 -170 -165 -114
-172 -130 -386 -40 -531 42 -65 121 -127 192 -149 131 -40 143 -38 998 170
916 223 864 212 969 208 50 -3 165 -15 256 -27 151 -21 191 -23 465 -18 328 5
489 23 760 85 394 91 877 292 1131 473 130 92 183 116 301 135 277 44 1043
181 1050 188 7 7 45 181 113 516 70 349 75 362 208 568 49 75 140 220 202 322
63 102 193 311 290 465 97 154 189 302 204 328 l28 48 -43 -6 c-24 -4 -94 -15
-154 -26 l-110 -20 -36 -67 c-20 -37 -81 -141 -136 -232 -230 -380 -535 -894
-566 -957 -44 -86 -57 -135 -101 -363 -35 -181 -80 -378 -87 -384 -2 -2 -97
-19 -211 -38 -166 -27 -208 -32 -208 -21 0 24 69 371 102 508 24 104 29 143
24 195 -6 73 -11 90 -175 685 -103 374 -116 431 -102 437 17 8 413 70 416 66
5 -7 118 -435 142 -541 15 -64 30 -114 34 -110 5 5 76 130 159 278 84 149 156
275 160 280 13 17 100 177 100 185 0 10 -91 2 -178 -16 -79 -17 -85 -22 -146
-128 l-23 -38 -32 123 c-18 68 -34 131 -37 139 -3 12 91 44 449 153 642 197
737 228 769 255 36 31 37 70 1 112 -25 30 -30 32 -72 27 -25 -3 -95 -22 -156
-41 -60 -19 -422 -130 -802 -246 -381 -116 -737 -226 -790 -244 -260 -90 -325
-99 -486 -68 l-88 17 193 78 c106 44 297 130 423 192 310 152 415 223 415 281
0 47 -58 55 -145 18 -15 -6 -11 4 17 42 19 27 58 89 85 138 l49 88 554 205
c305 113 630 231 722 263 184 63 238 94 238 139 0 64 -54 87 -145 61 -63 -19
-750 -265 -1100 -395 -114 -42 -208 -75 -210 -73 -2 1 4 53 12 114 l16 111 42
11 c24 6 299 104 611 218 313 114 628 228 700 254 170 61 230 94 243 132 21
60 -16 102 -84 96 -44 -3 -46 -2 -55 31 -5 19 -7 38 -4 42 2 4 43 21 90 36 53
17 100 40 123 59 32 29 35 34 26 60 -6 16 -22 35 -37 43 -24 14 -33 13 -95 -6
-77 -24 -675 -227 -1264 -428 l-396 -136 -74 74 -74 74 75 26 c97 33 543 189
885 310 149 52 369 127 490 166 121 39 251 83 288 97 120 46 157 99 101 143
-37 29 -68 26 -181 -15 -232 -84 -271 -98 -329 -114 -34 -10 -71 -21 -83 -25
-16 -5 -23 -1 -31 20 -23 60 -87 53 -398 -49 -128 -42 -240 -76 -248 -76 -19
0 -14 17 33 122 l35 77 57 16 c31 9 146 45 256 80 110 35 273 87 362 115 213
67 263 111 198 175 -35 36 -84 32 -243 -19 -333 -107 -494 -157 -498 -153 -5
5 16 64 50 141 l27 58 -26 -6 c-66 -16 -80 -18 -75 -13 9 9 312 111 517 173
254 77 303 103 303 162 0 24 -67 85 -85 78 -8 -3 -33 -10 -57 -16 -24 -6 -126
-38 -228 -70 -187 -59 -796 -243 -990 -298 -202 -58 -465 -102 -860 -143 -58
-6 -115 -15 -128 -20 -12 -5 -35 -29 -50 -54 -15 -24 -31 -46 -37 -49 -5 -2
-36 -16 -68 -30 l-58 -26 6 22 c12 42 75 161 106 199 65 82 83 87 664 189 126
23 175 36 639 172 364 106 435 133 456 173 12 23 12 30 -2 53 -9 15 -30 35
-46 45 -30 18 -31 17 -154 -22 -67 -22 -265 -80 -438 -130 -173 -50 -358 -104
-410 -120 l-94 -30 -27 22 c-15 12 -51 42 -80 66 -30 24 -55 47 -57 51 -4 10
146 59 508 165 454 133 492 145 542 172 80 43 85 109 12 154 l-33 20 -128 -40
c-146 -46 -455 -134 -749 -215 -110 -30 -224 -64 -253 -76 l-53 -21 -92 59
c-616 397 -1255 599 -1951 616 -99 2 -243 1 -320 -4z m3095 -1569 c0 -29 -81
-214 -99 -225 -13 -8 -561 -173 -601 -180 -32 -6 -33 -6 -17 8 11 8 66 33 123
56 120 49 164 83 164 129 0 26 -6 34 -33 47 -38 18 -64 12 -382 -85 -93 -29
-199 -57 -235 -61 -60 -8 -300 -83 -348 -109 -62 -33 -319 -72 -471 -70 l-76
0 55 25 c86 40 269 101 463 155 191 53 630 160 737 179 36 6 96 21 133 32 38
11 182 40 320 63 297 51 267 47 267 36z m-1330 -19 c0 -10 -29 -21 -230 -87
-602 -197 -652 -208 -871 -202 -169 4 -219 13 -164 29 17 5 129 31 250 58 121
27 276 63 345 79 235 56 490 106 635 124 17 2 31 5 33 6 1 0 2 -3 2 -7z
m-1623 -283 c36 -22 63 -65 63 -99 0 -31 -28 -24 -75 19 -39 36 -46 39 -78 31
-20 -4 -51 -17 -70 -29 -69 -42 -93 -10 -34 46 58 57 134 69 194 32z m14 -200
c131 -27 243 -67 330 -119 95 -56 96 -69 2 -22 -161 82 -326 115 -563 113
-194 0 -423 -29 -603 -75 -196 -51 -265 -90 -332 -189 -31 -46 -34 -48 -44
-29 -64 119 123 244 451 302 296 52 567 59 759 19z m-192 -153 c-2 -3 -85 -18
-184 -35 -406 -67 -592 -155 -869 -408 -71 -66 -106 -87 -106 -65 0 47 187
234 322 323 136 89 344 161 528 182 49 5 314 8 309 3z m-49 -97 c-14 -12 -47
-32 -75 -46 l-50 -25 45 46 c34 35 51 46 75 46 l30 -1 -25 -20z m-180 -26
c-12 -16 -40 -43 -63 -61 -46 -37 -62 -29 -51 26 7 35 49 57 117 61 17 1 17
-1 -3 -26z m3050 -142 c36 -11 61 -20 55 -21 -114 -12 -165 -24 -218 -51 -132
-67 -218 -149 -288 -277 -88 -161 -147 -260 -159 -267 -12 -8 -3 55 22 140 41
143 156 326 251 398 74 56 168 93 247 96 14 0 54 -8 90 -18z m-3495 -53 c-25
-15 -214 -78 -233 -78 -12 0 -12 3 -2 15 22 27 161 70 235 74 l20 0 -20 -11z
m2866 -32 c-20 -21 -51 -39 -79 -47 -65 -18 -141 -52 -181 -83 -19 -14 -39
-26 -45 -26 -15 0 53 68 103 102 50 35 174 87 210 87 25 1 25 1 -8 -33z
m-3501 -305 c-188 -62 -337 -119 -410 -156 -81 -41 -250 -158 -495 -342 -132
-99 -283 -210 -335 -248 -169 -121 -373 -290 -455 -376 -75 -80 -80 -83 -83
-57 -9 74 90 201 253 323 156 117 513 392 738 567 125 98 259 196 297 218 111
65 232 99 435 123 17 2 75 4 130 5 l100 1 -175 -58z m2776 -213 c-18 -112 -13
-107 -164 -165 -76 -28 -368 -139 -650 -247 -282 -108 -515 -196 -518 -196 -2
0 -4 29 -4 64 0 49 5 69 21 90 36 46 149 95 474 207 110 37 340 118 510 178
171 61 316 110 324 111 10 0 12 -10 7 -42z m-4787 -22 c-2 -3 -51 -16 -109
-31 -197 -50 -346 -139 -440 -263 -28 -37 -77 -119 -109 -182 -32 -64 -68
-131 -80 -150 l-21 -35 0 41 c0 112 73 295 157 396 126 151 292 226 502 227
57 1 102 -1 100 -3z m319 -220 c34 -18 88 -74 79 -82 -3 -3 -27 1 -53 10 -99
34 -178 14 -247 -63 -42 -47 -61 -80 -77 -139 -8 -32 -15 -42 -28 -40 -13 3
-17 13 -15 46 4 92 90 219 176 261 49 24 125 28 165 7z m4451 -133 c6 -16 12
-46 14 -67 l2 -39 -85 -34 c-364 -144 -1264 -483 -1284 -483 -11 0 -2 82 16
134 12 36 19 41 78 64 321 121 1224 450 1241 451 4 1 12 -11 18 -26z m-1871
-140 c13 -10 24 -22 24 -28 0 -5 -38 -22 -84 -37 -46 -15 -108 -39 -138 -52
-49 -22 -250 -85 -455 -144 -112 -33 -1162 -369 -1253 -402 -113 -41 -143 -40
-77 2 163 104 508 239 1193 469 433 145 568 187 677 213 33 8 88 -2 113 -21z
m2046 -172 c107 -100 177 -127 376 -145 l125 -11 -415 -137 c-678 -224 -829
-270 -902 -275 -72 -6 -82 1 -50 33 17 18 116 66 492 240 218 101 290 149 290
193 0 51 -54 52 -164 2 -66 -31 -712 -283 -1001 -391 -77 -29 -189 -73 -248
-96 -60 -24 -112 -44 -117 -44 -7 0 13 118 21 124 15 10 216 88 504 193 187
69 491 180 675 248 184 68 338 124 343 124 4 1 36 -26 71 -58z m-2624 -306 c0
-15 -34 -141 -39 -147 -4 -4 -111 -10 -239 -12 -127 -3 -237 -8 -244 -12 -10
-5 -10 -4 -2 5 12 13 477 169 507 170 9 1 17 -1 17 -4z m3394 -307 c74 -24
156 -77 191 -124 14 -19 38 -60 53 -92 25 -53 27 -66 27 -192 -1 -122 -5 -152
-43 -320 -24 -102 -58 -266 -77 -365 -77 -405 -145 -547 -345 -716 -72 -60
-130 -93 -228 -129 -120 -44 -203 -60 -306 -60 -162 0 -272 44 -365 146 -108
118 -121 285 -45 611 13 55 37 177 54 270 40 219 67 342 95 423 52 153 147
298 249 381 201 163 531 238 740 167z m-1078 -125 c-16 -49 -138 -636 -226
-1083 -174 -884 -162 -834 -190 -842 -14 -4 -99 -19 -190 -34 -91 -15 -177
-29 -192 -32 -24 -4 -28 -1 -28 19 1 13 34 186 74 384 40 198 70 361 65 363
-15 6 -414 -60 -420 -70 -3 -5 -11 -39 -18 -76 -34 -193 -133 -677 -141 -692
-8 -15 -120 -39 -409 -87 l-34 -6 7 39 c4 21 10 58 15 82 7 35 6 42 -8 42 -8
0 -124 -27 -256 -59 -132 -33 -323 -80 -425 -105 -102 -25 -219 -56 -260 -69
l-74 -23 144 -61 c80 -34 177 -74 215 -89 39 -15 73 -30 77 -33 8 -7 -81 -30
-702 -182 -670 -165 -650 -160 -698 -154 -119 17 -177 168 -113 293 46 90 113
133 247 157 130 24 952 241 1494 395 139 39 348 90 381 93 23 2 13 -42 195
855 85 422 158 770 162 774 8 7 432 81 437 76 4 -3 -85 -473 -111 -591 -9 -42
-15 -80 -12 -83 6 -6 395 60 403 68 3 3 32 137 65 299 76 379 71 357 84 367 9
7 240 50 406 75 14 3 29 5 33 6 5 0 6 -7 3 -16z m-3313 -315 c-3 -24 -25 -126
-47 -228 l-41 -184 -40 -9 c-22 -4 -156 -28 -299 -52 -142 -24 -260 -46 -261
-47 -5 -5 -55 -260 -55 -278 0 -15 19 -13 193 17 105 18 208 36 228 39 43 7
45 39 -13 -256 -22 -113 -45 -210 -52 -216 -6 -6 -111 -28 -234 -49 -122 -22
-227 -42 -232 -45 -10 -6 -67 -253 -135 -590 -21 -102 -42 -190 -47 -197 -5
-6 -37 -16 -71 -22 -214 -39 -350 -61 -354 -57 -2 2 19 116 47 253 28 136 120
588 206 1003 85 415 158 761 162 769 6 10 72 25 203 48 107 18 329 57 494 87
165 29 312 54 328 55 27 1 27 0 20 -41z m3387 -1762 c41 -14 90 -28 108 -33
32 -8 27 -11 -105 -60 -286 -107 -504 -166 -753 -205 -130 -20 -180 -23 -480
-22 -197 0 -351 4 -375 10 l-40 11 70 16 c39 9 304 61 590 117 286 55 601 120
700 144 99 24 187 44 195 45 8 1 49 -10 90 -23z"/>
<path d="M6774 3896 c-117 -27 -151 -57 -184 -165 -42 -139 -126 -565 -145
-737 -6 -55 -4 -64 18 -89 21 -25 31 -29 73 -28 92 1 163 22 205 60 45 41 65
95 103 286 111 550 120 617 90 655 -25 30 -79 36 -160 18z"/>
<path d="M9345 5656 c-60 -18 -315 -99 -565 -180 -250 -81 -477 -154 -505
-163 -110 -35 -175 -70 -189 -104 -17 -39 -9 -66 27 -93 34 -25 30 -26 477
120 190 62 413 133 495 159 83 25 207 64 277 86 171 53 222 96 188 160 -11 20
-60 49 -82 49 -7 -1 -62 -16 -123 -34z"/>
</g>
</svg>
