<?xml version="1.0" standalone="no"?>
<!DOCTYPE svg PUBLIC "-//W3C//DTD SVG 20010904//EN"
 "http://www.w3.org/TR/2001/REC-SVG-20010904/DTD/svg10.dtd">
<svg version="1.0" xmlns="http://www.w3.org/2000/svg"
 width="327.000000pt" height="327.000000pt" viewBox="0 0 327.000000 327.000000"
 preserveAspectRatio="xMidYMid meet">
<metadata>
Created by potrace 1.14, written by Peter Selinger 2001-2017
</metadata>
<g transform="translate(0.000000,327.000000) scale(0.100000,-0.100000)"
fill="#000000" stroke="none">
<path d="M880 2580 c-27 -27 -25 -64 3 -87 22 -17 53 -18 475 -17 249 0 452
-1 452 -2 0 -1 -30 -24 -67 -52 -87 -64 -182 -161 -220 -224 l-17 -27 -194 -3
c-190 -3 -194 -3 -213 -27 -35 -43 -19 -101 32 -119 13 -5 81 -8 152 -8 80 1
127 -2 127 -9 0 -5 -11 -45 -24 -88 -14 -43 -28 -102 -31 -131 -4 -29 -11 -59
-15 -66 -7 -11 -133 -13 -655 -14 l-647 -1 -19 -24 c-26 -31 -24 -67 4 -95
l24 -24 642 0 c353 0 645 -2 647 -5 3 -3 7 -18 9 -34 2 -15 6 -46 9 -68 3 -22
13 -67 22 -100 29 -105 29 -103 0 -100 -31 4 -76 -38 -76 -70 0 -13 8 -33 19
-46 18 -23 34 -27 117 -28 37 -1 43 -5 71 -48 53 -81 142 -177 218 -234 17
-12 33 -25 37 -28 4 -4 -183 -6 -415 -6 -456 1 -470 0 -483 -51 -4 -14 -2 -36
5 -50 l11 -24 848 0 c605 0 859 3 883 11 173 58 334 175 454 329 78 101 163
283 179 384 4 21 9 43 12 48 4 5 8 69 10 141 4 149 -11 253 -52 369 -28 78
-101 221 -115 226 -5 2 -9 9 -9 14 0 12 0 13 -92 112 -125 135 -275 224 -479
284 -13 3 -383 8 -821 9 -789 3 -798 3 -818 -17z m1547 -341 c21 -6 43 -11 48
-13 6 -2 24 -7 40 -11 136 -38 287 -172 359 -320 19 -38 37 -83 41 -100 3 -16
10 -50 16 -75 17 -76 4 -260 -20 -280 -3 -3 -7 -16 -9 -30 -1 -13 -8 -28 -15
-32 -6 -4 -8 -8 -3 -8 5 0 3 -6 -3 -13 -6 -8 -8 -17 -4 -20 3 -4 1 -7 -5 -7
-7 0 -12 -5 -12 -11 0 -16 -54 -90 -102 -140 -59 -61 -180 -138 -243 -155
-109 -29 -140 -33 -235 -29 -64 2 -116 10 -160 25 -58 19 -136 56 -150 70 -3
3 -22 18 -43 34 -52 38 -147 138 -147 154 0 5 -8 20 -19 33 -10 13 -19 26 -19
29 0 3 -5 16 -10 30 -5 14 -10 27 -10 30 0 3 -5 17 -11 33 -26 68 -37 235 -20
302 6 22 12 47 13 55 9 44 69 169 95 197 12 12 21 24 21 27 0 10 57 64 109
105 54 42 141 87 196 102 82 22 114 26 182 27 46 0 100 -4 120 -9z"/>
<path d="M2237 2014 c-2 -2 -14 -6 -28 -8 -13 -2 -25 -5 -26 -7 -2 -1 -6 -2
-10 -3 -81 -18 -213 -150 -238 -238 -2 -5 -3 -9 -4 -10 -14 -18 -21 -183 -9
-228 32 -130 167 -262 293 -289 53 -11 193 -6 222 8 15 8 43 21 61 30 85 41
166 140 195 239 18 58 15 216 -3 240 -2 1 -3 5 -4 10 -5 24 -42 86 -73 121
-76 89 -196 144 -309 140 -35 -1 -65 -4 -67 -5z m97 -80 c12 -11 16 -35 16
-89 0 -78 -13 -105 -50 -105 -38 0 -50 27 -50 110 0 65 3 81 18 89 25 15 48
13 66 -5z m-129 -158 c47 -45 53 -61 32 -86 -23 -29 -51 -22 -96 24 -41 42
-43 47 -32 73 17 41 44 38 96 -11z m276 34 c32 -18 23 -54 -26 -99 -24 -22
-47 -41 -49 -41 -15 0 -38 15 -47 31 -8 16 -2 28 37 69 50 53 55 56 85 40z
m-320 -150 c21 -12 25 -41 9 -71 -9 -16 -22 -19 -86 -19 -41 0 -84 5 -95 10
-25 14 -26 65 -1 79 22 14 148 14 173 1z m450 0 c12 -7 19 -21 19 -40 0 -39
-23 -50 -109 -50 -91 0 -120 26 -91 81 9 16 22 19 86 19 41 0 84 -5 95 -10z
m-156 -135 c46 -46 55 -71 33 -93 -22 -22 -53 -13 -90 26 -57 59 -54 93 9 111
1 1 23 -19 48 -44z m-216 21 c17 -20 0 -56 -48 -99 -46 -41 -45 -41 -72 -27
-30 16 -23 46 22 95 43 46 77 57 98 31z m101 -65 c17 -32 13 -157 -6 -175 -20
-20 -48 -20 -68 0 -24 24 -23 169 2 183 27 16 60 13 72 -8z"/>
<path d="M753 2148 c-44 -21 -53 -87 -18 -132 13 -17 29 -20 122 -21 60 -1
118 3 129 8 22 9 44 46 44 72 0 27 -22 63 -47 74 -30 14 -201 13 -230 -1z"/>
<path d="M453 2140 c-58 -24 -57 -106 2 -137 23 -13 85 -9 114 6 22 12 36 60
26 91 -12 37 -93 60 -142 40z"/>
<path d="M581 1248 c-45 -16 -53 -77 -15 -107 26 -20 38 -21 343 -21 174 0
321 4 327 8 35 23 41 112 8 112 -8 0 -14 3 -14 8 0 9 -623 10 -649 0z"/>
</g>
</svg>
